<svg width="245" height="304" viewBox="0 0 245 304" fill="none" xmlns="http://www.w3.org/2000/svg">
<mask id="mask0_24318_296" style="mask-type:alpha" maskUnits="userSpaceOnUse" x="0" y="0" width="245" height="304">
<rect width="245" height="303.683" fill="#D9D9D9"/>
</mask>
<g mask="url(#mask0_24318_296)">
<path d="M77.2523 313.927C52.3517 312.062 31.4318 294.049 24.684 269.001C16.2716 237.834 17.7465 203.697 29.5273 173.715C45.3318 133.456 79.3643 101.461 119.407 89.2039C152.774 78.9921 194.112 84.952 213.826 114.812C226.684 134.292 227.787 159.434 227.88 183.08C227.98 205.685 227.522 228.649 221.29 250.332C215.057 272.015 202.253 292.517 183.026 303.002C165.729 312.438 145.367 312.872 125.847 313.099C108.754 313.296 92.5842 315.076 77.2523 313.927Z" fill="#36D6AD"/>
<path d="M49.3562 128.81C58.0777 115.012 67.0389 107.804 80.6129 99.255C86.2091 95.7282 92.964 91.2776 92.6529 84.4721C92.3847 78.5906 86.6275 74.5605 81.1028 73.2986C68.6838 70.4693 55.4673 77.0375 47.5539 87.3805C39.6405 97.7235 36.3579 111.212 35.6784 124.41C35.4853 128.051 35.9216 132.506 39.097 134.066C42.8373 135.903 46.7815 132.161 49.3562 128.796" fill="#36D6AD"/>
<path d="M218.47 271.864C218.864 271.149 219.207 270.408 219.498 269.645C221.245 265.142 222.985 263.889 224.735 258.737C224.965 257.927 225.315 257.156 225.774 256.449C227.489 254.059 231.284 254.098 233.736 255.736C238.469 258.894 238.805 266.312 235.401 270.865C231.767 275.718 225.158 277.606 219.143 277.36C218.841 277.349 218.549 277.246 218.308 277.064C218.067 276.882 217.889 276.63 217.797 276.343C217.271 274.598 217.74 273.181 218.47 271.864Z" fill="#36D6AD"/>
<path d="M156.204 78.0858C156.204 78.0858 219.44 75.5275 230.063 135.093" stroke="#36D6AD" stroke-width="2" stroke-miterlimit="10" stroke-linecap="round"/>
<path d="M15.0039 197.608C10.8903 203.765 -4.50176 250.455 30.5661 298.261" stroke="#36D6AD" stroke-width="2" stroke-miterlimit="10" stroke-linecap="round"/>
<path d="M231.256 168.791C229.715 179.085 223.937 188.813 215.206 194.501C212.602 196.191 209.52 197.871 208.725 200.883C208.215 202.792 208.778 204.823 209.296 206.714C217.513 237.268 215.873 269.652 204.612 299.212C203.86 301.16 200.935 307.023 200.935 307.023C200.935 307.023 155.779 316.336 142.083 316.483L142.689 312.027L143.367 307.013C144.405 299.29 145.636 290.426 146.994 280.906C155.02 224.522 167.275 145.048 168.064 142.53C170.457 134.844 175.682 156.911 175.893 164.962C177.35 163.031 179.193 161.428 181.305 160.256C183.416 159.084 185.748 158.369 188.152 158.157C186.311 149.582 186.671 143.168 189.179 135.062C189.219 134.927 189.297 134.807 189.405 134.717C189.512 134.627 189.644 134.57 189.783 134.555C189.922 134.539 190.063 134.565 190.188 134.629C190.313 134.693 190.416 134.793 190.484 134.915C195.374 143.408 195.952 150.829 198.863 160.976C199.351 162.67 199.184 164.916 200.832 165.521C201.837 165.879 202.947 165.439 203.924 165.005L221.401 157.269C224.357 155.965 227.315 154.652 230.275 153.329C231.738 158.347 232.073 163.628 231.256 168.791Z" fill="#FFF3DB"/>
<path d="M148.6 290.436C148.6 290.436 139.86 226.435 112.295 204.718C111.934 204.443 112.898 204.718 112.926 205.147C113.602 214.831 117.259 289.014 142.759 312.138L148.6 290.436Z" fill="#FFF3DB"/>
<path d="M231.262 168.765C226.367 166.092 223.141 161.017 221.373 157.432C224.333 156.15 227.296 154.859 230.261 153.559C231.732 158.492 232.074 163.686 231.262 168.765Z" fill="#1A2B60"/>
<path d="M184.957 179.896C185.709 181.822 185.723 183.627 184.988 183.928C184.253 184.228 183.05 182.907 182.301 180.984C181.552 179.062 181.534 177.254 182.269 176.953C183.004 176.652 184.208 177.97 184.957 179.896Z" fill="#1A2B60"/>
<path d="M195.278 175.01C196.027 176.934 196.041 178.739 195.306 179.04C194.571 179.341 193.368 178.023 192.619 176.095C191.87 174.168 191.853 172.362 192.588 172.065C193.322 171.768 194.526 173.082 195.278 175.01Z" fill="#1A2B60"/>
<path d="M212.684 193.747C212.684 193.747 202.562 205.291 193.676 194.717" stroke="#1A2B60" stroke-miterlimit="10" stroke-linecap="round"/>
<path d="M36.1351 311.234C36.1351 311.234 28.264 229.304 55.8415 169.851L64.0346 191.434C68.2091 190.208 72.6471 190.208 76.8216 191.434L85.3367 169.851C85.3367 169.851 121.347 245.358 114.639 320.284L36.1351 311.234Z" fill="white"/>
<path d="M63.3356 202.979C63.3356 205.38 62.6065 207.324 61.7064 207.324C60.8063 207.324 60.0771 205.38 60.0771 202.979C60.0771 200.577 60.8063 198.634 61.7064 198.634C62.6065 198.634 63.3356 200.567 63.3356 202.979Z" fill="#1A2B60"/>
<path d="M73.6549 202.979C73.6549 205.38 73.0472 207.324 72.2972 207.324C71.5471 207.324 70.9395 205.38 70.9395 202.979C70.9395 200.577 71.5471 198.634 72.2972 198.634C73.0472 198.634 73.6549 200.567 73.6549 202.979Z" fill="#1A2B60"/>
<path d="M64.4226 218.728L37.2686 200.263" stroke="#1A2B60" stroke-width="0.5" stroke-miterlimit="10" stroke-linecap="round"/>
<path d="M64.4218 218.728L31.8369 227.417" stroke="#1A2B60" stroke-width="0.5" stroke-miterlimit="10" stroke-linecap="round"/>
<path d="M64.4224 218.728L38.3545 214.926" stroke="#1A2B60" stroke-width="0.5" stroke-miterlimit="10" stroke-linecap="round"/>
<path d="M68.2236 219.271L103.524 203.521" stroke="#1A2B60" stroke-width="0.5" stroke-miterlimit="10" stroke-linecap="round"/>
<path d="M68.2236 219.271L101.352 230.676" stroke="#1A2B60" stroke-width="0.5" stroke-miterlimit="10" stroke-linecap="round"/>
<path d="M68.2236 219.271L97.007 216.013" stroke="#1A2B60" stroke-width="0.5" stroke-miterlimit="10" stroke-linecap="round"/>
<path d="M86.8902 266.71C99.1538 269.223 112.466 266.387 122.561 258.924C127.555 255.227 131.836 250.478 134.629 244.871C137.364 239.292 138.799 233.159 138.823 226.938C138.848 220.718 137.462 214.574 134.771 208.973C133.412 206.199 131.697 203.616 129.67 201.291C127.37 198.653 124.623 196.452 121.794 194.417C116.155 190.357 109.613 186.832 105.485 181.163C103.552 178.511 102.157 175.718 101.658 172.469C101.243 169.444 101.964 166.372 103.68 163.854C107.319 158.333 113.982 155.576 119.194 151.573C121.962 149.445 124.58 146.907 126.064 143.697C127.466 140.653 128.094 137.153 127.216 133.865C126.787 132.299 126.009 130.851 124.94 129.633C124.313 128.915 123.064 128.983 122.418 129.633C122.093 129.974 121.911 130.429 121.911 130.902C121.911 131.375 122.093 131.83 122.418 132.171C122.615 132.383 122.787 132.617 122.932 132.867C123.129 133.183 123.304 133.511 123.456 133.851C123.357 133.625 123.481 133.905 123.492 133.937C123.556 134.109 123.617 134.296 123.674 134.461C123.799 134.877 123.899 135.3 123.974 135.728C124.077 136.306 123.974 135.412 124.006 135.997C124.006 136.123 124.027 136.249 124.034 136.356C124.054 136.737 124.054 137.118 124.034 137.498C124.023 138.178 123.929 138.854 123.756 139.512C123.043 142.498 121.352 144.918 119.019 147.05C114.118 151.555 107.604 154.118 102.946 159.054C100.613 161.528 98.7508 164.582 98.2014 167.993C97.7044 171.375 98.1759 174.829 99.5605 177.951C100.937 181.106 102.882 183.979 105.296 186.422C107.793 189.014 110.765 191.147 113.722 193.182C116.679 195.217 119.615 197.073 122.369 199.284C123.691 200.338 124.944 201.476 126.121 202.691C126.597 203.189 127.057 203.702 127.502 204.231C128.047 204.877 128.276 205.175 128.718 205.789C129.59 207.003 130.381 208.272 131.087 209.591C131.721 210.773 132.284 211.993 132.77 213.245C133.827 215.999 134.557 218.869 134.946 221.796C134.91 221.53 134.946 221.842 134.946 221.882C134.968 222.069 134.992 222.241 135.014 222.445C135.053 222.804 135.089 223.196 135.117 223.573C135.179 224.326 135.217 225.083 135.231 225.841C135.267 227.293 135.221 228.746 135.096 230.192C135.064 230.551 135.025 230.946 134.982 231.323C134.96 231.51 134.939 231.682 134.914 231.886C134.953 231.599 134.896 231.998 134.889 232.066C134.775 232.846 134.637 233.621 134.475 234.392C134.181 235.811 133.807 237.212 133.355 238.589C133.138 239.249 132.902 239.899 132.642 240.545C132.381 241.191 132.203 241.622 131.85 242.365C129.98 246.332 127.379 249.907 124.184 252.897C122.075 254.914 119.736 256.673 117.218 258.138C114.726 259.639 112.079 260.864 109.324 261.789C103.741 263.708 97.8176 264.411 91.9447 263.853C90.5699 263.73 89.2036 263.524 87.8533 263.236C87.3977 263.12 86.9155 263.186 86.507 263.42C86.0984 263.653 85.7949 264.036 85.6595 264.488C85.417 265.375 85.9556 266.502 86.9044 266.696L86.8902 266.71Z" fill="white"/>
<path d="M108.432 39.5114C104.587 38.5248 101.023 36.6518 98.0224 34.0408C95.0218 31.4297 92.6668 28.1522 91.1436 24.4676C90.1838 22.0942 89.5892 19.4614 90.1874 16.9727C90.7855 14.484 92.8377 12.2259 95.377 12.0458C97.3289 11.9053 99.2092 12.9858 100.513 14.4516C101.817 15.9175 102.662 17.7399 103.453 19.5299C102.164 16.2885 100.857 12.8129 101.501 9.37704C102.146 5.94114 105.616 2.80418 108.926 3.88465C111.791 4.81745 112.998 8.1525 113.639 11.0878C115.706 20.6067 115.641 31.0585 110.824 39.5078" fill="#FC7071"/>
<path d="M137.686 42.9397C135.774 40.9003 134.368 38.4477 133.579 35.7762C132.79 33.1048 132.639 30.2879 133.14 27.5488C133.473 25.7921 134.122 24.0245 135.428 22.7922C136.733 21.5599 138.818 21.0174 140.395 21.8761C141.609 22.5371 142.316 23.8843 142.53 25.2388C142.744 26.5932 142.53 27.9764 142.345 29.3308C142.817 26.9381 143.361 24.4089 145.057 22.6377C146.754 20.8665 150.01 20.3528 151.584 22.2425C152.925 23.8736 152.378 26.2914 151.634 28.2638C149.231 34.6299 145.21 40.7338 139.119 43.8558" fill="#FCF0E3"/>
<path d="M126.541 70.5763C124.834 71.5224 122.939 72.0415 121.006 72.0923C119.073 72.1431 117.155 71.7244 115.404 70.8692C114.286 70.3124 113.21 69.5349 112.627 68.3996C112.044 67.2642 112.03 65.7238 112.887 64.7837C113.237 64.4453 113.656 64.193 114.112 64.0453C114.568 63.8977 115.05 63.8583 115.522 63.9303C116.465 64.0812 117.381 64.3812 118.237 64.8199C116.716 64.0461 115.113 63.1999 114.224 61.6957C113.335 60.1915 113.561 57.8375 115.106 57.1107C116.439 56.4816 117.966 57.3096 119.157 58.1955C123.007 61.0412 126.399 64.9645 127.419 69.7664" fill="#36D6AD"/>
</g>
</svg>
